HIERARCHY
ROOT pelvis
{
  OFFSET 0 100 0
  CHANNELS 6 Xposition Yposition Zposition Zrotation Xrotation Yrotation
  JOINT pelvis_right_femur
  {
    OFFSET -10.78128 -3.44521 -0.5502486
    CHANNELS 3 Zrotation Xrotation Yrotation
    JOINT right_femur_tibia
    {
      OFFSET -0.8047443 -44.0398 -0.1307829
      CHANNELS 3 Zrotation Xrotation Yrotation
      JOINT right_tibia_foot
      {
        OFFSET 3.006224 -47.83518 -5
        CHANNELS 3 Zrotation Xrotation Yrotation
        End Site
        {
          OFFSET 0 -5 15
        }
      }
    }
  }
  JOINT pelvis_left_femur
  {
    OFFSET 10.78128 -3.44521 -0.5502486
    CHANNELS 3 Zrotation Xrotation Yrotation
    JOINT left_femur_tibia
    {
      OFFSET 0.8047443 -44.0398 -0.1307829
      CHANNELS 3 Zrotation Xrotation Yrotation
      JOINT left_tibia_foot
      {
        OFFSET -4.370144 -48.10324 -4.275266
        CHANNELS 3 Zrotation Xrotation Yrotation
        End Site
        {
          OFFSET 0 -5 15
        }
      }
    }
  }
  JOINT pelvis_spine1
  {
    OFFSET 0 6.468898 -3.129235
    CHANNELS 3 Zrotation Xrotation Yrotation
    JOINT spine1
    {
      OFFSET 0 23.15396 4.99043
      CHANNELS 3 Zrotation Xrotation Yrotation
      JOINT spine2
      {
        OFFSET 0 20.79997 -5.064912
        CHANNELS 3 Zrotation Xrotation Yrotation
        JOINT neck
        {
          OFFSET 0 14.38658 9.616178
          CHANNELS 3 Zrotation Xrotation Yrotation
          End Site
          {
            OFFSET 0 20 0
          }
        }
      }
      JOINT right_manubrium
      {
        OFFSET -5.722621 16.35077 3.967754
        CHANNELS 3 Zrotation Xrotation Yrotation
        JOINT right_clavicle
        {
          OFFSET -13.16364 1.694482 -4.693211
          CHANNELS 3 Zrotation Xrotation Yrotation
          JOINT right_humerus
          {
            OFFSET -28.5034 -0.3100689 -2.792744
            CHANNELS 3 Zrotation Xrotation Yrotation
            JOINT right_radius
            {
              OFFSET -25.15693 0.02248979 -1.271978
              CHANNELS 3 Zrotation Xrotation Yrotation
              End Site
              {
                OFFSET -15 0 0
              }
            }
          }
        }
      }
      JOINT left_manubrium
      {
        OFFSET 5.722621 16.35077 3.967754
        CHANNELS 3 Zrotation Xrotation Yrotation
        JOINT left_clavicle
        {
          OFFSET 13.16364 1.694482 -4.693211
          CHANNELS 3 Zrotation Xrotation Yrotation
          JOINT left_humerus
          {
            OFFSET 29.39168 -1.063119 -2.237045
            CHANNELS 3 Zrotation Xrotation Yrotation
            JOINT left_radius
            {
              OFFSET 24.59957 -0.9528479 0.9047498
              CHANNELS 3 Zrotation Xrotation Yrotation
              End Site
              {
                OFFSET 15 -0 -0
              }
            }
          }
        }
      }
    }
  }
}
MOTION
Frames: 21
Frame Time: 0.0416666666667
319.306 104.181 2904.895 -0.9387713 -4.324426 0.9344124 6.798783 -6.29913 2.221687 -0 13.72841 -0 -11.68377 -6.775372 -2.514447 -2.524926 -5.101927 -8.100282 -0 61.49861 -0 -2.574318 -3.979235 12.62983 2.026401 -3.982237 7.51263 0.006790139 17.66281 -6.20795 1.997296 19.69507 1.211535 -0.6029458 -19.58978 4.819118 -3.338586 -30.51992 12.77563 91.36135 14.60775 -11.69344 -0 0 25.90109 -25.03853 18.15932 15.87729 1.750644 -23.0482 -8.050779 -93.77857 12.16839 34.50476 0 0 -11.19374 5.980962 15.7471 6.137448
319.3191 105.2535 2910.151 -0.09326928 -5.395803 0.4594962 5.903907 -0.7360173 1.978011 -0 11.55075 -0 -10.99027 -7.868745 -2.290935 -1.917398 -11.28226 -7.041584 -0 59.57104 -0 -1.55768 -3.710724 14.191 1.767732 -3.986342 7.522907 0.04791493 17.2395 -5.937315 1.997213 19.58703 0.939122 -0.7912007 -19.15609 4.688977 -2.639559 -30.99708 12.82144 89.83444 15.05052 -9.88418 -0 0 27.92401 -24.98752 18.71098 16.56706 1.705271 -22.15139 -7.577329 -94.4903 12.36162 35.6107 0 0 -9.123557 5.354688 15.8305 6.431131
319.328 105.6877 2915.274 0.280796 -6.364726 -0.04839468 5.566786 4.388015 1.893217 -0 9.544594 -0 -10.10849 -8.927462 -2.178255 -0.5466726 -16.44191 -5.59645 -0 52.33357 -0 -0.9494652 -3.687701 16.21973 1.4757 -3.984464 7.467946 0.1291669 16.69683 -5.677759 2.004839 19.54066 0.6805338 -0.9639453 -18.63394 4.56903 -1.881111 -31.29255 12.86937 88.2534 15.53465 -8.120321 -0 0 29.73574 -24.84261 19.19347 17.18094 1.703354 -21.2734 -7.075066 -95.09467 12.62137 36.39572 0 0 -7.274722 4.752037 15.99901 6.637544
319.4041 105.4055 2920.338 0.05961582 -6.791267 -0.642901 5.766024 8.797757 1.912589 -0 8.199925 -0 -9.219037 -10.88655 -2.03411 1.358129 -20.51945 -4.082878 -0 41.13919 -0 -0.8326421 -3.703594 17.74364 1.162181 -3.945852 7.323332 0.2393237 16.0789 -5.44634 2.017625 19.60534 0.5016745 -1.073082 -18.12171 4.491032 -1.157818 -31.31526 12.91283 86.81549 16.07104 -6.611491 -0 0 31.00563 -24.61083 19.45272 17.62591 1.747549 -20.49991 -6.600503 -95.52677 12.9637 36.7289 0 0 -5.786579 4.29083 16.26321 6.67803
319.6242 104.5784 2925.472 -0.5189101 -6.571344 -1.305569 6.09701 12.30659 1.932147 -0 7.94857 -0 -8.410539 -13.52295 -1.742153 3.13402 -23.28738 -2.908926 -0 29.08661 -0 -0.8341924 -3.663971 18.27404 0.8580802 -3.858912 7.101666 0.34984 15.48868 -5.253466 2.03325 19.79367 0.4499601 -1.083408 -17.7355 4.475275 -0.5791453 -31.06629 12.94608 85.72051 16.61644 -5.53666 -0 0 31.53396 -24.35277 19.40066 17.85803 1.831208 -19.91574 -6.223136 -95.77917 13.35413 36.62526 0 0 -4.706328 4.075301 16.60217 6.516621
320.0156 103.4985 2930.839 -1.098497 -6.038902 -2.001856 6.134724 15.01219 1.91723 -0 9.03215 -0 -7.712688 -15.79705 -1.359712 4.094596 -24.55362 -2.437258 -0 19.26946 -0 -0.7527223 -3.636758 18.19205 0.6077733 -3.741336 6.852041 0.4290863 15.04797 -5.107671 2.048412 20.05961 0.5269029 -0.9957418 -17.55241 4.519627 -0.2186399 -30.65357 12.96853 85.09427 17.06899 -4.98293 -0 0 31.36791 -24.15546 19.08442 17.90043 1.940214 -19.5757 -5.997196 -95.89223 13.71747 36.23609 0 0 -4.011841 4.131243 16.94854 6.19563
320.5475 102.4279 2936.582 -1.398558 -5.598395 -2.706689 5.63759 17.22329 1.829839 -0 11.32406 -0 -7.147808 -16.7101 -0.9664975 3.909942 -24.5516 -2.812926 -0 13.25488 -0 -0.7222448 -3.804008 18.16602 0.4454423 -3.627385 6.628587 0.4623682 14.82711 -5.015546 2.059722 20.32665 0.6884062 -0.8462168 -17.56661 4.601308 -0.07360266 -30.22365 12.9866 84.92615 17.32968 -4.909472 -0 0 30.75757 -24.07514 18.65619 17.81969 2.057692 -19.47866 -5.934154 -95.91957 13.98458 35.74991 0 0 -3.645194 4.393506 17.23111 5.807026
321.1573 101.5376 2942.784 -1.316529 -5.450248 -3.377201 4.615083 19.1493 1.635299 -0 14.53457 -0 -6.736076 -15.74481 -0.5681011 2.723728 -23.75881 -3.870137 -0 10.86341 -0 -0.9287613 -4.28479 18.54107 0.3788207 -3.546163 6.462171 0.4563223 14.81895 -4.977576 2.066239 20.53662 0.8750278 -0.6807061 -17.70723 4.690842 -0.0829409 -29.87721 13.00913 85.0951 17.36329 -5.184899 -0 0 29.98479 -24.11258 18.26919 17.68327 2.169475 -19.57723 -6.005612 -95.89989 14.1252 35.29635 0 0 -3.538439 4.76192 17.4244 5.430173
321.7841 100.9311 2949.439 -0.9060233 -5.624858 -3.935459 3.244032 20.71521 1.360733 -0 18.60977 -0 -6.499601 -12.84775 -0.1696949 0.9096207 -22.44564 -5.311565 -0 11.05168 -0 -1.371123 -5.072404 19.23498 0.3967848 -3.510662 6.359911 0.4252363 14.97759 -4.988716 2.069082 20.66855 1.045005 -0.5299021 -17.90073 4.767161 -0.1836947 -29.64669 13.04139 85.4697 17.19356 -5.678615 -0 0 29.22536 -24.23988 18.00405 17.53234 2.266904 -19.81679 -6.172956 -95.85013 14.14168 34.92545 0 0 -3.638288 5.163099 17.54159 5.102388
322.3884 100.6855 2956.451 -0.2869846 -6.095331 -4.27681 1.74846 21.5812 1.063065 -0 23.80605 -0 -6.488826 -8.205509 0.1819952 -1.174281 -20.54542 -6.877835 -0 12.76382 -0 -1.877013 -6.100776 19.9778 0.485813 -3.520365 6.317941 0.3787504 15.26336 -5.044278 2.069171 20.7273 1.185113 -0.4031274 -18.11057 4.823011 -0.3470296 -29.52019 13.08322 85.98182 16.86162 -6.325915 -0 0 28.52145 -24.43206 17.86719 17.37669 2.34633 -20.16656 -6.411955 -95.76778 14.04821 34.63097 0 0 -3.929882 5.570124 17.60149 4.827872
322.9524 100.8709 2963.632 0.3967548 -6.801257 -4.292655 0.3843225 21.18632 0.757906 -0 30.39396 -0 -6.787996 -2.198737 0.4371448 -3.210639 -17.82074 -8.337041 -0 15.12437 -0 -2.206216 -7.308083 20.5025 0.639159 -3.569311 6.330119 0.3202787 15.65766 -5.144595 2.066634 20.72808 1.301747 -0.2955594 -18.3326 4.860747 -0.5771526 -29.46581 13.13102 86.63159 16.39594 -7.133776 -0 0 27.8211 -24.67624 17.82534 17.20198 2.407813 -20.62677 -6.718235 -95.63381 13.85724 34.37175 0 0 -4.446621 5.990904 17.61532 4.594195
323.4732 101.527 2970.702 0.9632556 -7.620079 -3.91877 -0.5316557 18.86641 0.4035781 -0 38.09971 -0 -7.455756 4.350456 0.5738568 -4.85993 -14.12125 -9.435235 -0 17.26821 -0 -2.139741 -8.641387 20.61755 0.8571081 -3.653123 6.390772 0.2513299 16.15494 -5.295305 2.062092 20.68805 1.40676 -0.1977149 -18.57004 4.885087 -0.8928375 -29.4419 13.18017 87.45328 15.80485 -8.151346 -0 0 27.02883 -24.96639 17.83799 16.98095 2.454716 -21.21974 -7.100025 -95.4169 13.57531 34.08249 0 0 -5.262906 6.448605 17.59293 4.382871
323.9544 102.5899 2977.369 1.212169 -8.381133 -3.200119 -0.7418519 14.30777 -0.01430238 -0 45.49397 -0 -8.374914 9.95067 0.5514817 -5.809505 -9.650953 -9.99033 -0 18.32487 -0 -1.665935 -10.04247 20.26868 1.139835 -3.77257 6.494129 0.1767627 16.74257 -5.501842 2.058486 20.62398 1.504921 -0.1034521 -18.80708 4.896928 -1.303258 -29.40101 13.22613 88.46342 15.08796 -9.418447 -0 0 26.05937 -25.29302 17.87827 16.68884 2.49408 -21.96735 -7.562082 -95.08512 13.20712 33.68691 0 0 -6.46079 6.958853 17.55349 4.178052
324.4055 103.8275 2983.473 1.063803 -8.95957 -2.295131 -0.3414938 8.137108 -0.3995155 -0 50.23523 -0 -9.148713 12.90661 0.225904 -5.984446 -4.970669 -10.11306 -0 17.82045 -0 -1.1814 -11.47634 19.56551 1.474118 -3.930776 6.632823 0.1069974 17.3769 -5.75738 2.061394 20.55105 1.586586 -0.01612533 -18.99848 4.891302 -1.78552 -29.3032 13.26361 89.60541 14.26689 -10.8945 -0 0 24.90577 -25.63221 17.9404 16.32555 2.534545 -22.85173 -8.082376 -94.63232 12.76787 33.1369 0 0 -8.053562 7.50236 17.52565 3.980095
324.8374 104.8907 2989.049 0.691386 -9.301091 -1.380997 0.1743906 1.62779 -0.6759976 -0 50.66306 -0 -9.369503 12.50946 -0.5193877 -5.672423 -0.5663251 -10.1895 -0 16.03191 -0 -1.174291 -12.98062 18.69542 1.826094 -4.121408 6.796574 0.05271147 17.98207 -6.035137 2.075301 20.48029 1.635711 0.05257009 -19.1014 4.864646 -2.289791 -29.14065 13.28446 90.75163 13.41565 -12.43083 -0 0 23.67198 -25.94288 18.02256 15.92477 2.578608 -23.78912 -8.603026 -94.0994 12.29577 32.46289 0 0 -9.917955 8.015749 17.52489 3.815974
325.2489 105.4765 2994.222 0.3854027 -9.284453 -0.5760334 0.3739564 -4.449557 -0.9143265 -0 46.89638 -0 -9.02557 9.54249 -1.505146 -5.310362 3.400145 -10.49686 -0 13.64501 -0 -1.486964 -14.59794 17.85066 2.15592 -4.319849 6.970508 0.01760418 18.48635 -6.302622 2.098959 20.41742 1.650041 0.09328068 -19.12422 4.825784 -2.779696 -28.93915 13.27835 91.79759 12.64307 -13.86119 -0 0 22.49231 -26.17686 18.09763 15.52318 2.617322 -24.66898 -9.059909 -93.54638 11.84639 31.75334 0 0 -11.85902 8.427629 17.53176 3.72422
325.6282 105.4462 2999.111 0.2957172 -8.71137 0.05843597 0.2805651 -10.14437 -1.189651 -0 40.2342 -0 -8.399948 5.566109 -2.350795 -5.169619 6.856142 -10.97855 -0 11.28018 -0 -1.353352 -16.24651 17.23127 2.435485 -4.491433 7.13437 8.809971e-05 18.8486 -6.540025 2.126228 20.36573 1.645954 0.1057187 -19.12121 4.794317 -3.249579 -28.72982 13.23766 92.71814 12.04458 -15.09331 -0 0 21.43983 -26.29158 18.11493 15.13106 2.636924 -25.41147 -9.413918 -93.0098 11.4731 31.08082 0 0 -13.72795 8.69878 17.50684 3.725881
325.9651 104.8333 3003.836 0.3757766 -7.521526 0.5036481 0.2244637 -15.67263 -1.489207 -0 32.22798 -0 -7.768703 2.102258 -2.766248 -5.277605 9.721658 -11.39954 -0 9.472706 -0 -0.2637202 -17.76065 16.95651 2.648686 -4.605681 7.267205 -0.002396498 19.05485 -6.738216 2.149739 20.32575 1.644214 0.09498182 -19.15 4.788485 -3.698259 -28.53949 13.16292 93.5196 11.68009 -16.08595 -0 0 20.55042 -26.26328 18.03473 14.7498 2.626954 -25.97077 -9.649141 -92.50969 11.2139 30.49225 0 0 -15.41676 8.821324 17.41742 3.818033
326.2522 103.7894 3008.533 0.490595 -5.895619 0.7901052 0.4954606 -20.93956 -1.768374 -0 24.23098 -0 -7.320462 0.1325954 -2.683884 -5.52139 12.02013 -11.58234 -0 8.706141 -0 1.512593 -19.03002 16.93851 2.790734 -4.648722 7.357386 0.006390977 19.11907 -6.892648 2.163815 20.29312 1.656882 0.06785902 -19.24037 4.814547 -4.10977 -28.3936 13.06505 94.19579 11.55935 -16.81735 -0 0 19.86104 -26.10521 17.85864 14.39552 2.584663 -26.32957 -9.768427 -92.06971 11.07971 30.02928 0 0 -16.82515 8.810218 17.25268 3.980985
326.4798 102.5195 3013.355 0.5215942 -4.146682 1.000128 1.171822 -25.53931 -1.995526 -0 17.23153 -0 -7.166183 -0.1559913 -2.237351 -5.762168 13.87183 -11.49067 -0 9.302572 -0 3.172122 -20.02798 16.90334 2.868474 -4.628222 7.407127 0.02106437 19.08013 -7.002366 2.166346 20.26193 1.684022 0.03199518 -19.3854 4.864695 -4.457862 -28.30859 12.96148 94.72724 11.63827 -17.28889 -0 0 19.39835 -25.8681 17.62804 14.09715 2.516853 -26.50251 -9.792299 -91.71656 11.05191 29.722 0 0 -17.87742 8.700357 17.02963 4.184118
326.635 101.2275 3018.472 0.4101488 -2.606762 1.240572 2.143044 -28.92921 -2.188964 -0 11.79679 -0 -7.354225 0.8027301 -1.666111 -5.886379 15.40942 -11.13746 -0 11.40394 -0 3.892832 -20.70611 16.5047 2.895195 -4.564497 7.427688 0.03605791 18.98321 -7.069405 2.158491 20.22833 1.717841 -0.006529764 -19.55714 4.92434 -4.721287 -28.28911 12.8677 95.09717 11.84769 -17.52208 -0 0 19.16714 -25.61249 17.39567 13.88041 2.434617 -26.52375 -9.748689 -91.47001 11.09753 29.58225 0 0 -18.54244 8.531177 16.78042 4.398588
